<svg xmlns="http://www.w3.org/2000/svg" version="1.1" xmlns:xlink="http://www.w3.org/1999/xlink" xmlns:svgjs="http://svgjs.dev/svgjs" width="260" height="260"><svg width="260" height="260" viewBox="0 0 260 260" fill="none" xmlns="http://www.w3.org/2000/svg">
<path d="M5 108.093C5 59.4944 5 35.1952 20.0976 20.0976C35.1952 5 59.4944 5 108.093 5H151.907C200.506 5 224.805 5 239.902 20.0976C255 35.1952 255 59.4944 255 108.093V151.907C255 200.506 255 224.805 239.902 239.902C224.805 255 200.506 255 151.907 255H108.093C59.4944 255 35.1952 255 20.0976 239.902C5 224.805 5 200.506 5 151.907V108.093Z" fill="#0077FF"></path>
<path fill-rule="evenodd" clip-rule="evenodd" d="M179.74 87.3565H171.748V83.7443C171.748 71.7827 167.08 60.9088 159.567 53.0281C152.054 45.1512 141.683 40.26 130.274 40.26C118.865 40.26 108.494 45.1512 100.978 53.0281C93.4648 60.9088 88.7997 71.7827 88.7997 83.7443V87.3565H80.0097V128.673L104.301 103.564L104.14 103.395L105.342 98.6842L106.544 93.9768L111.038 92.7128L115.527 91.4525L118.815 94.8996L122.103 98.3467L120.901 103.054L119.695 107.765L115.205 109.026L110.801 110.263L60.4657 163.219C60.4657 163.219 52.8491 175.916 62.2151 183.961C71.5846 192.003 81.1939 183.875 81.1939 183.875L146.748 115.372C146.748 115.372 149.296 111.239 146.255 107.188C143.214 103.14 139.271 107.533 139.271 107.533L75.7417 175.068C75.7417 175.068 71.5202 179.044 68.787 175.657C66.0502 172.27 68.787 168.751 68.787 168.751L132.936 101.37C132.936 101.37 140.159 94.0256 149.221 98.4442C158.279 102.863 158.139 114.498 155.682 117.96C153.224 121.422 92.9604 185.856 92.9604 185.856C92.9604 185.856 86.7104 193.882 83.97 203.384C81.2297 212.881 81.0186 218.774 81.0186 218.774H180.434V177.371L156.476 202.491L155.413 206.651L154.208 211.362L149.718 212.622L145.228 213.886L141.937 210.439L138.653 206.992L139.855 202.281L141.06 197.573L145.55 196.309L150.04 195.049L150.111 195.124L200.372 142.371C200.372 142.371 206.994 133.001 199.216 123.313C191.439 113.624 180.81 121.295 180.81 121.295L112.415 192.195C112.415 192.195 109.496 196.954 112.798 199.726C116.103 202.495 119.803 199.4 119.803 199.4L186.248 129.798C186.248 129.798 189.679 127.908 191.968 130.653C194.262 133.399 192.133 136.764 192.133 136.764L123.609 208.046C123.609 208.046 114.765 214.629 106.576 206.617C98.3875 198.601 103.407 189.329 104.065 188.357C104.72 187.382 106.083 185.608 106.083 185.608L163.341 125.368C163.341 125.368 172.893 114.832 176.145 104.307C179.393 93.7818 179.74 87.3565 179.74 87.3565ZM162.35 87.3565H98.1943V83.7443C98.1943 74.4983 101.804 66.0888 107.621 59.9935C113.435 53.8946 121.455 50.1099 130.274 50.1099C139.089 50.1099 147.11 53.8946 152.927 59.9935C158.74 66.0888 162.35 74.4983 162.35 83.7443V87.3565Z" fill="white"></path>
</svg><style>@media (prefers-color-scheme: light) { :root { filter: none; } }
@media (prefers-color-scheme: dark) { :root { filter: none; } }
</style></svg>