<svg width="103" height="100" viewBox="0 0 103 100" fill="none" xmlns="http://www.w3.org/2000/svg">
<g clip-path="url(#clip0_329_3335)">
<path d="M18.7083 0.454476H83.2917C85.6178 0.452227 87.9215 0.920477 90.0709 1.83243C92.2204 2.74437 94.1734 4.08212 95.8182 5.7691C97.463 7.45608 98.7673 9.45918 99.6565 11.6638C100.546 13.8683 101.002 16.2311 101 18.6169V82.2921C101.002 84.6778 100.546 87.0406 99.6565 89.2452C98.7673 91.4497 97.463 93.4529 95.8182 95.1398C94.1734 96.8268 92.2204 98.1646 90.0709 99.0765C87.9215 99.9885 85.6178 100.457 83.2917 100.454H18.7083C16.3822 100.457 14.0785 99.9885 11.9291 99.0765C9.7796 98.1646 7.82658 96.8268 6.18177 95.1398C4.53696 93.4529 3.23266 91.4497 2.34351 89.2452C1.45436 87.0406 0.997815 84.6778 1.00001 82.2921V18.6169C0.997815 16.2311 1.45436 13.8683 2.34351 11.6638C3.23266 9.45918 4.53696 7.45608 6.18177 5.7691C7.82658 4.08212 9.7796 2.74437 11.9291 1.83243C14.0785 0.920477 16.3822 0.452227 18.7083 0.454476Z" fill="#2965F1"/>
<path d="M25.6495 41.3038L26.6507 52.1841H51.6508V41.3038H25.6495ZM23.6375 19.282L24.6529 30.1623H51.6508V19.282H23.6375ZM51.6508 69.5611L51.6019 69.5737L39.16 66.3018L38.3646 57.6244H27.1498L28.7149 74.7081L51.5994 80.8948L51.6508 80.8812V69.5611Z" fill="#EBEBEB"/>
<path d="M77.5808 41.3039L79.5975 19.2821H51.6124V30.1624H67.3543L66.3378 41.3039H51.6124V52.1842H65.3692L64.0721 66.2952L51.6121 69.5704V80.8898L74.5148 74.7082L74.6827 72.8699L77.3084 44.2256L77.5808 41.3039Z" fill="white"/>
</g>
<defs>
<clipPath id="clip0_329_3335">
<rect width="101.745" height="99.0911" fill="white" transform="translate(0.745361 0.454468)"/>
</clipPath>
</defs>
</svg>
