<svg width="103" height="100" viewBox="0 0 103 100" fill="none" xmlns="http://www.w3.org/2000/svg">
<g clip-path="url(#clip0_329_3342)">
<path d="M17.7083 0.454476H82.2917C84.6178 0.452227 86.9215 0.920477 89.0709 1.83243C91.2204 2.74437 93.1734 4.08212 94.8182 5.7691C96.463 7.45608 97.7673 9.45918 98.6565 11.6638C99.5456 13.8683 100.002 16.2311 100 18.6169V82.2921C100.002 84.6778 99.5456 87.0406 98.6565 89.2452C97.7673 91.4498 96.463 93.4529 94.8182 95.1398C93.1734 96.8268 91.2204 98.1646 89.0709 99.0765C86.9215 99.9885 84.6178 100.457 82.2917 100.454H17.7083C15.3822 100.457 13.0785 99.9885 10.9291 99.0765C8.7796 98.1646 6.82658 96.8268 5.18177 95.1398C3.53696 93.4529 2.23266 91.4498 1.34351 89.2452C0.454359 87.0406 -0.00218452 84.6778 7.85865e-06 82.2921V18.6169C-0.00218452 16.2311 0.454359 13.8683 1.34351 11.6638C2.23266 9.45918 3.53696 7.45608 5.18177 5.7691C6.82658 4.08212 8.7796 2.74437 10.9291 1.83243C13.0785 0.920477 15.3822 0.452227 17.7083 0.454476Z" fill="#F16529"/>
<path d="M35.593 30.1621H51.3972V19.2819H23.3838L23.651 22.2008L26.397 52.184H51.3972V41.3037H36.6141L35.593 30.1621ZM38.1109 57.6243H26.8962L28.4612 74.708L51.3458 80.8947L51.3972 80.8811V69.561L51.3482 69.5736L38.9064 66.3017L38.1109 57.6243Z" fill="#EBEBEB"/>
<path d="M51.3578 52.184H65.1145L63.8175 66.2949L51.3574 69.5702V80.8896L74.2602 74.708L74.4281 72.8697L77.0537 44.2254L77.3262 41.3037H51.3578V52.184ZM51.3578 30.1356V30.1621H78.3427L78.5666 27.7167L79.0759 22.2008L79.3428 19.2819H51.3578V30.1359V30.1356Z" fill="white"/>
</g>
<defs>
<clipPath id="clip0_329_3342">
<rect width="101.745" height="99.0911" fill="white" transform="translate(0.490723 0.454468)"/>
</clipPath>
</defs>
</svg>
