<svg width="102" height="100" viewBox="0 0 102 100" fill="none" xmlns="http://www.w3.org/2000/svg">
<g clip-path="url(#clip0_329_3378)">
<path d="M17.7083 8.06015e-06H82.2917C84.6178 -0.00224053 86.9215 0.466009 89.0709 1.37796C91.2204 2.28991 93.1734 3.62765 94.8182 5.31463C96.463 7.00162 97.7673 9.00471 98.6565 11.2093C99.5456 13.4139 100.002 15.7766 100 18.1624V81.8376C100.002 84.2234 99.5456 86.5861 98.6565 88.7907C97.7673 90.9953 96.463 92.9984 94.8182 94.6854C93.1734 96.3723 91.2204 97.7101 89.0709 98.622C86.9215 99.534 84.6178 100.002 82.2917 100H17.7083C15.3822 100.002 13.0785 99.534 10.9291 98.622C8.7796 97.7101 6.82658 96.3723 5.18177 94.6854C3.53696 92.9984 2.23266 90.9953 1.34351 88.7907C0.454359 86.5861 -0.00218452 84.2234 7.85865e-06 81.8376V18.1624C-0.00218452 15.7766 0.454359 13.4139 1.34351 11.2093C2.23266 9.00471 3.53696 7.00162 5.18177 5.31463C6.82658 3.62765 8.7796 2.28991 10.9291 1.37796C13.0785 0.466009 15.3822 -0.00224053 17.7083 8.06015e-06Z" fill="#F7DF1E"/>
<path d="M68.1039 77.9893C70.1355 81.2483 72.7787 83.6438 77.4535 83.6438C81.3807 83.6438 83.8894 81.7154 83.8894 79.051C83.8894 75.8581 81.3119 74.7272 76.9893 72.8696L74.6198 71.8708C67.7805 69.0082 63.237 65.422 63.237 57.8408C63.237 50.8572 68.6531 45.5409 77.1173 45.5409C83.1434 45.5409 87.4756 47.6014 90.5974 52.9963L83.217 57.652C81.592 54.7894 79.839 53.6616 77.1173 53.6616C74.3413 53.6616 72.5818 55.3918 72.5818 57.652C72.5818 60.4455 74.3429 61.5764 78.4093 63.3065L80.7787 64.3037C88.8316 67.6964 93.3783 71.1552 93.3783 78.9315C93.3783 87.3149 86.6751 91.9077 77.6729 91.9077C68.8708 91.9077 63.1842 87.7867 60.4017 82.3855L68.1039 77.9893ZM34.623 78.7962C36.1119 81.3914 37.4663 83.5856 40.7227 83.5856C43.8365 83.5856 45.8009 82.3886 45.8009 77.7345V46.0725H55.2786V77.8603C55.2786 87.5021 49.5248 91.8904 41.1261 91.8904C33.5375 91.8904 29.1429 88.0321 26.908 83.3851L34.623 78.7962Z" fill="black"/>
</g>
<defs>
<clipPath id="clip0_329_3378">
<rect width="100.861" height="99.0911" fill="white" transform="translate(0.179443 0.454468)"/>
</clipPath>
</defs>
</svg>
