<svg width="101" height="100" viewBox="0 0 101 100" fill="none" xmlns="http://www.w3.org/2000/svg">
<g clip-path="url(#clip0_329_3383)">
<path d="M17.7083 8.06015e-06H82.2917C84.6178 -0.00224053 86.9215 0.466009 89.0709 1.37796C91.2204 2.28991 93.1734 3.62765 94.8182 5.31463C96.463 7.00162 97.7673 9.00471 98.6565 11.2093C99.5456 13.4139 100.002 15.7766 100 18.1624V81.8376C100.002 84.2234 99.5456 86.5861 98.6565 88.7907C97.7673 90.9953 96.463 92.9984 94.8182 94.6854C93.1734 96.3723 91.2204 97.7101 89.0709 98.622C86.9215 99.534 84.6178 100.002 82.2917 100H17.7083C15.3822 100.002 13.0785 99.534 10.9291 98.622C8.7796 97.7101 6.82658 96.3723 5.18177 94.6854C3.53696 92.9984 2.23266 90.9953 1.34351 88.7907C0.454359 86.5861 -0.00218452 84.2234 7.85865e-06 81.8376V18.1624C-0.00218452 15.7766 0.454359 13.4139 1.34351 11.2093C2.23266 9.00471 3.53696 7.00162 5.18177 5.31463C6.82658 3.62765 8.7796 2.28991 10.9291 1.37796C13.0785 0.466009 15.3822 -0.00224053 17.7083 8.06015e-06Z" fill="white"/>
<path d="M70.3251 73.3226H70.0208V73.1554H70.84V73.3226H70.5377V74.1571H70.3251V73.3226ZM71.9591 73.3662H71.9543L71.6528 74.1573H71.5148L71.2152 73.3662H71.2115V74.1573H71.0111V73.1555H71.306L71.5838 73.8649L71.8607 73.1555H72.1545V74.1573H71.9589V73.3662H71.9591Z" fill="#E76F00"/>
<path d="M43.0843 52.8386C43.0843 52.8386 40.9671 54.0483 44.591 54.4576C48.9814 54.9496 51.2252 54.8791 56.0634 53.9794C56.0634 53.9794 57.3354 54.763 59.1118 55.4417C48.2659 60.0085 34.5654 55.1772 43.0843 52.8386Z" fill="#5382A1"/>
<path d="M41.7597 46.8795C41.7597 46.8795 39.3851 48.6064 43.0117 48.9749C47.7016 49.4503 51.4053 49.4891 57.8141 48.2767C57.8141 48.2767 58.7005 49.1596 60.0944 49.6425C46.9811 53.4097 32.3752 49.9396 41.7597 46.8795Z" fill="#5382A1"/>
<path d="M52.9319 36.7704C55.6043 39.7932 52.2297 42.5134 52.2297 42.5134C52.2297 42.5134 59.0155 39.0718 55.8991 34.7622C52.9885 30.7432 50.7564 28.7463 62.8398 21.8613C62.8398 21.8613 43.8729 26.5153 52.9319 36.7704Z" fill="#E76F00"/>
<path d="M67.2767 57.2467C67.2767 57.2467 68.8435 58.515 65.5512 59.4962C59.2908 61.3594 39.4948 61.9221 33.9955 59.5705C32.0187 58.7255 35.7258 57.553 36.8919 57.307C38.1081 57.0479 38.8031 57.0962 38.8031 57.0962C36.6046 55.5746 24.5932 60.0838 32.7019 61.3751C54.8154 64.8984 73.0127 59.7886 67.2767 57.2467Z" fill="#5382A1"/>
<path d="M44.1023 40.7047C44.1023 40.7047 34.0328 43.0544 40.5364 43.9077C43.2825 44.2689 48.7566 44.1871 53.8557 43.7674C58.0229 43.422 62.2073 42.6878 62.2073 42.6878C62.2073 42.6878 60.7379 43.306 59.6748 44.0192C49.4494 46.6613 29.6957 45.4321 35.3826 42.7296C40.1919 40.4456 44.1023 40.7047 44.1023 40.7047Z" fill="#5382A1"/>
<path d="M62.1653 50.6245C72.56 45.3179 67.7539 40.2182 64.3993 40.9052C63.5771 41.0734 63.2105 41.219 63.2105 41.219C63.2105 41.219 63.5157 40.7493 64.0987 40.5459C70.7351 38.2537 75.839 47.3065 61.9564 50.892C61.9564 50.8921 62.1173 50.7509 62.1653 50.6245Z" fill="#5382A1"/>
<path d="M55.8989 10.744C55.8989 10.744 61.6556 16.4016 50.4389 25.1014C41.4443 32.0802 48.3878 36.0593 50.4352 40.6056C45.1848 35.9516 41.3318 31.8547 43.9167 28.0417C47.7108 22.4445 58.2216 19.7308 55.8989 10.744Z" fill="#E76F00"/>
<path d="M45.1239 65.0044C55.1014 65.6318 70.423 64.6562 70.7859 60.0179C70.7859 60.0179 70.0884 61.7763 62.54 63.1727C54.024 64.7472 43.5206 64.5633 37.291 63.5543C37.2912 63.5541 38.5663 64.5912 45.1239 65.0044Z" fill="#5382A1"/>
<path d="M43.4886 82.7272C42.5474 83.5293 41.5533 83.9795 40.6612 83.9795C39.3879 83.9795 38.6999 83.2294 38.6999 82.0262C38.6999 80.7247 39.437 79.7732 42.3942 79.7732H43.4885V82.7272H43.4886ZM46.0858 85.6061V76.6946C46.0858 74.4181 44.7642 72.9159 41.5778 72.9159C39.7176 72.9159 38.0881 73.3672 36.7637 73.9427L37.146 75.5202C38.1887 75.1441 39.5385 74.7941 40.8634 74.7941C42.699 74.7941 43.4886 75.5202 43.4886 77.0213V78.1476H42.5725C38.1127 78.1476 36.101 79.8484 36.101 82.4013C36.101 84.6045 37.4267 85.8568 39.9229 85.8568C41.5275 85.8568 42.7253 85.206 43.8449 84.2536L44.0482 85.6062H46.0858V85.6061Z" fill="#E76F00"/>
<path d="M54.7536 85.6062H51.5143L47.6158 73.1417H50.4446L52.8636 80.8L53.4014 83.1032C54.6251 79.7731 55.4907 76.3947 55.9236 73.1417H58.6753C57.938 77.2462 56.6114 81.7514 54.7536 85.6062Z" fill="#E76F00"/>
<path d="M67.1803 82.7272C66.2373 83.5293 65.2414 83.9795 64.3493 83.9795C63.0782 83.9795 62.3884 83.2294 62.3884 82.0262C62.3884 80.7247 63.1273 79.7732 66.0842 79.7732H67.1803V82.7272ZM69.7771 85.6061V76.6946C69.7771 74.4181 68.4523 72.9159 65.2696 72.9159C63.408 72.9159 61.7779 73.3672 60.4541 73.9427L60.8358 75.5202C61.879 75.1441 63.2314 74.7941 64.5552 74.7941C66.3894 74.7941 67.1803 75.5202 67.1803 77.0213V78.1476H66.2626C61.8015 78.1476 59.7906 79.8484 59.7906 82.4013C59.7906 84.6045 61.1154 85.8568 63.6111 85.8568C65.2166 85.8568 66.4139 85.206 67.5355 84.2536L67.7395 85.6062H69.7771V85.6061Z" fill="#E76F00"/>
<path d="M33.2528 87.7228C32.5124 88.7848 31.3166 89.625 30.0074 90.1004L28.7251 88.6179C29.7216 88.1155 30.5762 87.3042 30.9733 86.5485C31.3167 85.8764 31.4589 85.0103 31.4589 82.9388V68.7086H34.2182V82.7439C34.2181 85.5132 33.9927 86.6319 33.2528 87.7228Z" fill="#E76F00"/>
</g>
<defs>
<clipPath id="clip0_329_3383">
<rect width="100.861" height="99.0911" fill="white" transform="translate(0.0400391 0.454468)"/>
</clipPath>
</defs>
</svg>
