<svg width="101" height="100" viewBox="0 0 101 100" fill="none" xmlns="http://www.w3.org/2000/svg">
<path d="M18.5758 8.06015e-06H83.1591C85.4852 -0.00224053 87.7889 0.466009 89.9384 1.37796C92.0878 2.28991 94.0408 3.62765 95.6857 5.31463C97.3305 7.00162 98.6348 9.00471 99.5239 11.2093C100.413 13.4139 100.87 15.7766 100.867 18.1624V81.8376C100.87 84.2234 100.413 86.5861 99.5239 88.7907C98.6348 90.9953 97.3305 92.9984 95.6857 94.6854C94.0408 96.3723 92.0878 97.7101 89.9384 98.622C87.7889 99.534 85.4852 100.002 83.1591 100H18.5758C16.2497 100.002 13.946 99.534 11.7965 98.622C9.64703 97.7101 7.69401 96.3723 6.0492 94.6854C4.40439 92.9984 3.10009 90.9953 2.21094 88.7907C1.32179 86.5861 0.865247 84.2234 0.867439 81.8376V18.1624C0.865247 15.7766 1.32179 13.4139 2.21094 11.2093C3.10009 9.00471 4.40439 7.00162 6.0492 5.31463C7.69401 3.62765 9.64703 2.28991 11.7965 1.37796C13.946 0.466009 16.2497 -0.00224053 18.5758 8.06015e-06Z" fill="#FF2D20"/>
<g clip-path="url(#clip0_329_3356)">
<path fill-rule="evenodd" clip-rule="evenodd" d="M81.0989 33.0304C81.121 33.11 81.1322 33.192 81.1324 33.2745V46.0882C81.1325 46.2527 81.088 46.4142 81.0035 46.5565C80.919 46.6989 80.7974 46.8169 80.6512 46.8987L69.6269 53.0907V65.3637C69.6269 65.6977 69.445 66.0061 69.1481 66.1742L46.1359 79.0978C46.0832 79.127 46.0257 79.1456 45.9683 79.1655C45.9467 79.1725 45.9264 79.1854 45.9036 79.1912C45.7427 79.2325 45.5737 79.2325 45.4128 79.1912C45.3865 79.1842 45.3625 79.1702 45.3374 79.1608C45.2847 79.1421 45.2296 79.1258 45.1794 79.0978L22.1719 66.1742C22.0258 66.0923 21.9043 65.9743 21.8198 65.832C21.7353 65.6897 21.6908 65.5282 21.6907 65.3637V26.9225C21.6907 26.8384 21.7026 26.7566 21.7242 26.6772C21.7314 26.6504 21.7481 26.6258 21.7577 26.599C21.7757 26.5499 21.7924 26.4997 21.8188 26.4542C21.8367 26.4238 21.8631 26.3993 21.8846 26.3712C21.9121 26.3339 21.9373 26.2953 21.9696 26.2626C21.9971 26.2358 22.0331 26.2159 22.0642 26.1926C22.0989 26.1645 22.13 26.1342 22.1695 26.112L33.675 19.6502C33.8207 19.5684 33.9858 19.5254 34.1539 19.5254C34.3219 19.5254 34.4871 19.5684 34.6327 19.6502L46.1371 26.112H46.1394C46.1778 26.1353 46.2101 26.1645 46.2448 26.1914C46.2759 26.2147 46.3106 26.2358 46.3382 26.2615C46.3717 26.2953 46.3956 26.3339 46.4244 26.3712C46.4447 26.3993 46.4722 26.4238 46.489 26.4542C46.5165 26.5009 46.5321 26.5499 46.5513 26.599C46.5608 26.6258 46.5776 26.6504 46.5848 26.6784C46.6068 26.758 46.6181 26.84 46.6183 26.9225V50.9325L56.2048 45.5475V33.2733C56.2048 33.1915 56.2168 33.1086 56.2383 33.0304C56.2467 33.0023 56.2623 32.9778 56.2719 32.951C56.291 32.9019 56.3078 32.8517 56.3341 32.8061C56.3521 32.7758 56.3784 32.7513 56.3988 32.7232C56.4275 32.6859 56.4514 32.6473 56.485 32.6146C56.5125 32.5878 56.5472 32.5679 56.5783 32.5445C56.6142 32.5165 56.6454 32.4861 56.6837 32.464L68.1904 26.0022C68.336 25.9203 68.5011 25.8772 68.6692 25.8772C68.8373 25.8772 69.0025 25.9203 69.1481 26.0022L80.6524 32.464C80.6931 32.4873 80.7242 32.5165 80.7601 32.5434C80.7901 32.5667 80.8248 32.5878 80.8523 32.6134C80.8858 32.6473 80.9098 32.6859 80.9385 32.7232C80.9601 32.7513 80.9864 32.7758 81.0032 32.8061C81.0307 32.8517 81.0462 32.9019 81.0654 32.951C81.0762 32.9778 81.0917 33.0023 81.0989 33.0304ZM79.2147 45.5475V34.8919L75.1887 37.1529L69.6269 40.2769V50.9325L79.2159 45.5475H79.2147ZM67.7103 64.823V54.1605L62.2395 57.2086L46.6171 65.9068V76.6698L67.7103 64.823ZM23.6085 28.5399V64.823L44.6993 76.6686V65.908L33.681 59.8246L33.6774 59.8222L33.6726 59.8199C33.6355 59.7989 33.6044 59.7685 33.5697 59.7428C33.5398 59.7195 33.505 59.7008 33.4787 59.6751L33.4763 59.6716C33.4452 59.6424 33.4236 59.6062 33.3973 59.5735C33.3734 59.542 33.3446 59.5151 33.3255 59.4824L33.3243 59.4789C33.3027 59.4439 33.2896 59.4018 33.274 59.3621C33.2584 59.3271 33.2381 59.2944 33.2285 59.257C33.2165 59.2126 33.2141 59.1647 33.2094 59.1192C33.2046 59.0842 33.195 59.0491 33.195 59.0141V59.0117V33.925L27.6344 30.7998L23.6085 28.5399ZM34.1551 21.5398L24.5697 26.9225L34.1527 32.3051L43.7368 26.9213L34.1527 21.5398H34.1551ZM39.1399 55.1321L44.7005 52.0093V28.5399L40.6746 30.8009L35.1128 33.925V57.3943L39.1399 55.1321ZM68.6692 27.8918L59.0851 33.2745L68.6692 38.6571L78.2522 33.2733L68.6692 27.8918ZM67.7103 40.2769L62.1485 37.1529L58.1226 34.8919V45.5475L63.6832 48.6703L67.7103 50.9325V40.2769ZM45.657 64.2893L59.7148 56.46L66.7419 52.5476L57.1649 47.1685L46.1382 53.3616L36.0884 59.0059L45.657 64.2893Z" fill="white"/>
</g>
<defs>
<clipPath id="clip0_329_3356">
<rect width="59.856" height="60.7287" fill="white" transform="translate(21.6907 19.5254)"/>
</clipPath>
</defs>
</svg>
