<svg width="102" height="100" viewBox="0 0 102 100" fill="none" xmlns="http://www.w3.org/2000/svg">
<g clip-path="url(#clip0_329_3318)">
<path d="M17.7083 0.454476H82.2917C84.6178 0.452227 86.9215 0.920477 89.0709 1.83243C91.2204 2.74437 93.1734 4.08212 94.8182 5.7691C96.463 7.45608 97.7673 9.45918 98.6565 11.6638C99.5456 13.8683 100.002 16.2311 100 18.6169V82.2921C100.002 84.6778 99.5456 87.0406 98.6565 89.2452C97.7673 91.4497 96.463 93.4529 94.8182 95.1398C93.1734 96.8268 91.2204 98.1646 89.0709 99.0765C86.9215 99.9885 84.6178 100.457 82.2917 100.454H17.7083C15.3822 100.457 13.0785 99.9885 10.9291 99.0765C8.7796 98.1646 6.82658 96.8268 5.18177 95.1398C3.53696 93.4529 2.23266 91.4497 1.34351 89.2452C0.454359 87.0406 -0.00218452 84.6778 7.85865e-06 82.2921V18.6169C-0.00218452 16.2311 0.454359 13.8683 1.34351 11.6638C2.23266 9.45918 3.53696 7.45608 5.18177 5.7691C6.82658 4.08212 8.7796 2.74437 10.9291 1.83243C13.0785 0.920477 15.3822 0.452227 17.7083 0.454476Z" fill="#777BB3"/>
<path d="M24.0015 55.7896C26.4754 55.7896 28.3222 55.3452 29.4908 54.4694C30.6469 53.6025 31.4453 52.1005 31.8638 50.0055C32.254 48.0472 32.1054 46.6799 31.4221 45.942C30.7236 45.1884 29.2132 44.8061 26.933 44.8061H22.9795L20.7878 55.7896H24.0015ZM11.0705 69.3192C10.887 69.3192 10.7127 69.2393 10.5961 69.1011C10.4792 68.9631 10.4318 68.7814 10.4669 68.6058L16.2755 39.4995C16.3317 39.2182 16.5849 39.0149 16.8793 39.0149H29.3983C33.3328 39.0149 36.2613 40.0553 38.102 42.1076C39.9525 44.1707 40.524 47.0545 39.8004 50.6789C39.506 52.1554 38.9995 53.5268 38.2951 54.7545C37.59 55.9837 36.658 57.121 35.5247 58.1354C34.1681 59.372 32.6328 60.2686 30.9653 60.7962C29.3243 61.3168 27.2168 61.5808 24.7015 61.5808H19.6323L18.1847 68.8343C18.1285 69.1159 17.8755 69.3192 17.581 69.3192H11.0705Z" fill="black"/>
<path d="M23.487 45.4051H26.9335C29.6854 45.4051 30.6414 45.9932 30.9662 46.3437C31.505 46.9256 31.6067 48.1526 31.2604 49.8918C30.8712 51.8388 30.1499 53.2193 29.116 53.9946C28.0575 54.7882 26.3368 55.1904 24.0019 55.1904H21.5344L23.487 45.4051ZM29.3988 38.4157H16.8796C16.2907 38.4157 15.7844 38.8223 15.672 39.3852L9.86345 68.4915C9.79332 68.8428 9.88806 69.206 10.1216 69.4822C10.3554 69.7584 10.7035 69.9182 11.071 69.9182H17.5812C18.1703 69.9182 18.6766 69.5116 18.789 68.9486L20.1398 62.1798H24.7019C27.2819 62.1798 29.4537 61.9058 31.1566 61.3657C32.908 60.8115 34.5192 59.8719 35.9453 58.5731C37.1248 57.5163 38.0963 56.33 38.8324 55.047C39.5687 53.7635 40.0977 52.3323 40.4047 50.793C41.1665 46.978 40.5476 43.923 38.5656 41.7135C36.6029 39.5252 33.5186 38.4157 29.3988 38.4157ZM20.0418 56.3886H24.0019C26.6267 56.3886 28.5819 55.9071 29.8665 54.9439C31.1513 53.9806 32.0178 52.3728 32.4681 50.1198C32.8989 47.9567 32.7027 46.4302 31.8794 45.5409C31.0551 44.6517 29.4068 44.2069 26.9335 44.2069H22.4729L20.0418 56.3886ZM29.3988 39.6139C33.1649 39.6139 35.9123 40.5764 37.6392 42.5017C39.3659 44.427 39.8859 47.1143 39.197 50.5645C38.9134 51.9858 38.4338 53.2852 37.7586 54.4625C37.0825 55.6405 36.1998 56.7177 35.1089 57.6944C33.8089 58.8792 32.3648 59.7235 30.7757 60.2264C29.1865 60.7306 27.1625 60.9816 24.7019 60.9816H19.1255L17.5812 68.72H11.071L16.8796 39.6139H29.3988Z" fill="white"/>
<path d="M54.7278 61.5811C54.5441 61.5811 54.37 61.5012 54.2533 61.363C54.1362 61.225 54.0889 61.0435 54.1239 60.8677L56.6934 47.9894C56.9378 46.7646 56.8775 45.8855 56.5238 45.5141C56.3073 45.287 55.6569 44.9062 53.7337 44.9062H49.0787L45.8482 61.0962C45.792 61.3778 45.5388 61.5811 45.2444 61.5811H38.7853C38.6016 61.5811 38.4275 61.5012 38.3107 61.363C38.1938 61.225 38.1464 61.0433 38.1815 60.8677L43.9901 31.7614C44.0463 31.4801 44.2995 31.2768 44.5939 31.2768H51.0529C51.2367 31.2768 51.4108 31.3567 51.5276 31.4946C51.6445 31.6328 51.6919 31.8144 51.6568 31.9901L50.2551 39.0151H55.2628C59.0777 39.0151 61.6646 39.6701 63.1713 41.0177C64.7071 42.3924 65.1863 44.5905 64.5957 47.5516L61.8932 61.0962C61.837 61.3778 61.584 61.5811 61.2893 61.5811H54.7278Z" fill="black"/>
<path d="M51.0529 30.6775H44.5939C44.0048 30.6775 43.4985 31.084 43.3862 31.647L37.5776 60.7533C37.5074 61.1046 37.6022 61.4678 37.8359 61.744C38.0697 62.0202 38.4178 62.1799 38.7853 62.1799H45.2443C45.8332 62.1799 46.3397 61.7733 46.452 61.2104L49.5858 45.5051H53.7337C55.6535 45.5051 56.0565 45.9045 56.0727 45.9217C56.1891 46.0437 56.3423 46.6088 56.0895 47.8749L53.52 60.7533C53.4499 61.1046 53.5446 61.4678 53.7784 61.744C54.0121 62.0202 54.3603 62.1799 54.7278 62.1799H61.2893C61.8782 62.1799 62.3847 61.7733 62.497 61.2104L65.1993 47.6658C65.8336 44.4864 65.291 42.1014 63.5875 40.5765C61.9618 39.1225 59.2388 38.4158 55.2627 38.4158H51.001L52.2606 32.1043C52.3305 31.753 52.236 31.3896 52.0023 31.1136C51.7685 30.8374 51.4203 30.6775 51.0529 30.6775ZM51.0529 31.8756L49.5087 39.614H55.2627C58.8833 39.614 61.3805 40.2294 62.755 41.4588C64.1294 42.6889 64.5411 44.6821 63.9918 47.4374L61.2893 60.9817H54.7278L57.2972 48.1036C57.5896 46.6386 57.4822 45.6393 56.9745 45.1065C56.4666 44.5737 55.3862 44.3069 53.7337 44.3069H48.5714L45.2443 60.9817H38.7853L44.5939 31.8756H51.0529Z" fill="white"/>
<path d="M74.8154 55.7896C77.2893 55.7896 79.1362 55.3452 80.3047 54.4694C81.4608 53.6027 82.2593 52.1007 82.678 50.0055C83.0682 48.0472 82.9195 46.6799 82.2361 45.942C81.5375 45.1884 80.0271 44.8061 77.747 44.8061H73.7935L71.6017 55.7896H74.8154ZM61.8847 69.3192C61.7012 69.3192 61.5269 69.2393 61.4102 69.1011C61.2933 68.9631 61.2458 68.7814 61.2808 68.6058L67.0894 39.4995C67.1458 39.2182 67.3988 39.0149 67.6935 39.0149H80.2123C84.1469 39.0149 87.0752 40.0553 88.9161 42.1076C90.7667 44.1705 91.338 47.0543 90.6146 50.6789C90.3197 52.1554 89.8134 53.5268 89.1091 54.7545C88.4039 55.9837 87.472 57.121 86.3387 58.1354C84.9821 59.372 83.4467 60.2686 81.7792 60.7962C80.1382 61.3168 78.0308 61.5808 75.5154 61.5808H70.446L68.999 68.8343C68.9426 69.1159 68.6896 69.3192 68.395 69.3192H61.8847Z" fill="black"/>
<path d="M74.3008 45.4052H77.7472C80.4992 45.4052 81.4551 45.9933 81.7799 46.3438C82.319 46.9257 82.4207 48.1526 82.0742 49.8916C81.685 51.8389 80.9634 53.2194 79.9298 53.9946C78.8713 54.7882 77.1505 55.1904 74.8157 55.1904H72.3483L74.3008 45.4052ZM80.2125 38.4157H67.6935C67.1046 38.4157 66.5984 38.8223 66.486 39.3853L60.6774 68.4916C60.6073 68.8428 60.702 69.2061 60.9356 69.4823C61.1693 69.7585 61.5175 69.9182 61.8849 69.9182H68.3952C68.9841 69.9182 69.4906 69.5116 69.6029 68.9487L70.9536 62.1799H75.5157C78.0956 62.1799 80.2675 61.9059 81.9704 61.3657C83.7217 60.8115 85.3334 59.8718 86.7595 58.5727C87.9389 57.5161 88.91 56.3301 89.6462 55.047C90.3825 53.7636 90.9115 52.3323 91.2185 50.7931C91.9802 46.9778 91.3614 43.9228 89.3794 41.7134C87.4167 39.5253 84.3326 38.4157 80.2125 38.4157ZM70.8558 56.3886H74.8157C77.4405 56.3886 79.3956 55.9071 80.6802 54.944C81.9653 53.9807 82.8316 52.3729 83.2819 50.1199C83.7129 47.9567 83.5167 46.4302 82.6932 45.541C81.8689 44.6517 80.2205 44.207 77.7472 44.207H73.2866L70.8558 56.3886ZM80.2125 39.6139C83.9786 39.6139 86.7261 40.5765 88.453 42.5018C90.1799 44.4271 90.6997 47.1144 90.0107 50.5646C89.7272 51.9859 89.2475 53.2853 88.5723 54.4625C87.8963 55.6405 87.0136 56.7177 85.9227 57.6945C84.6227 58.8793 83.1785 59.7236 81.5894 60.2264C80.0003 60.7307 77.9763 60.9817 75.5157 60.9817H69.9392L68.3952 68.72H61.8849L67.6935 39.6139H80.2125Z" fill="white"/>
</g>
<defs>
<clipPath id="clip0_329_3318">
<rect width="101.745" height="99.0911" fill="white" transform="translate(0 0.454468)"/>
</clipPath>
</defs>
</svg>
