<svg width="102" height="100" viewBox="0 0 102 100" fill="none" xmlns="http://www.w3.org/2000/svg">
<g clip-path="url(#clip0_329_3349)">
<path d="M17.7083 0.454476H82.2917C84.6178 0.452227 86.9215 0.920477 89.0709 1.83243C91.2204 2.74437 93.1734 4.08212 94.8182 5.7691C96.463 7.45608 97.7673 9.45918 98.6565 11.6638C99.5456 13.8683 100.002 16.2311 100 18.6169V82.2921C100.002 84.6778 99.5456 87.0406 98.6565 89.2452C97.7673 91.4497 96.463 93.4529 94.8182 95.1398C93.1734 96.8268 91.2204 98.1646 89.0709 99.0765C86.9215 99.9885 84.6178 100.457 82.2917 100.454H17.7083C15.3822 100.457 13.0785 99.9885 10.9291 99.0765C8.7796 98.1646 6.82658 96.8268 5.18177 95.1398C3.53696 93.4529 2.23266 91.4497 1.34351 89.2452C0.454359 87.0406 -0.00218452 84.6778 7.85865e-06 82.2921V18.6169C-0.00218452 16.2311 0.454359 13.8683 1.34351 11.6638C2.23266 9.45918 3.53696 7.45608 5.18177 5.7691C6.82658 4.08212 8.7796 2.74437 10.9291 1.83243C13.0785 0.920477 15.3822 0.452227 17.7083 0.454476Z" fill="#3771A1"/>
<path d="M50.5247 16.8046C33.0422 16.8046 34.1339 24.253 34.1339 24.253L34.1534 31.9696H50.8365V34.2864H27.5269C27.5269 34.2864 16.3398 33.04 16.3398 50.3705C16.3398 67.7011 26.1042 67.0865 26.1042 67.0865H31.9316V59.0445C31.9316 59.0445 31.6175 49.4515 41.54 49.4515C51.4625 49.4515 58.0867 49.4515 58.0867 49.4515C58.0867 49.4515 67.3833 49.5991 67.3833 40.6243C67.3833 31.6496 67.3833 25.7849 67.3833 25.7849C67.3833 25.7849 68.7947 16.8046 50.5247 16.8046ZM41.3256 21.9936C42.9854 21.9936 44.327 23.3116 44.327 24.9424C44.327 26.5731 42.9854 27.8911 41.3256 27.8911C39.6657 27.8911 38.3242 26.5731 38.3242 24.9424C38.3242 23.3116 39.6657 21.9936 41.3256 21.9936Z" fill="white"/>
<path d="M51.021 84.1105C68.5036 84.1105 67.4118 76.662 67.4118 76.662L67.3924 68.9454H50.7092V66.6286H74.0188C74.0188 66.6286 85.2059 67.875 85.2059 50.5445C85.2059 33.2139 75.4416 33.8285 75.4416 33.8285H69.6142V41.8706C69.6142 41.8706 69.9283 51.4636 60.0058 51.4636C50.0833 51.4636 43.4591 51.4636 43.4591 51.4636C43.4591 51.4636 34.1625 51.3159 34.1625 60.2907C34.1625 69.2654 34.1625 75.1302 34.1625 75.1302C34.1625 75.1302 32.751 84.1105 51.021 84.1105ZM60.2202 78.9214C58.5603 78.9214 57.2188 77.6034 57.2188 75.9727C57.2188 74.3419 58.5603 73.0239 60.2202 73.0239C61.88 73.0239 63.2216 74.3419 63.2216 75.9727C63.2216 77.6034 61.88 78.9214 60.2202 78.9214Z" fill="#FFD242"/>
</g>
<defs>
<clipPath id="clip0_329_3349">
<rect width="100.861" height="99.0911" fill="white" transform="translate(0.236084 0.454468)"/>
</clipPath>
</defs>
</svg>
