<svg width="103" height="100" viewBox="0 0 103 100" fill="none" xmlns="http://www.w3.org/2000/svg">
<g clip-path="url(#clip0_329_3401)">
<path d="M18.7083 8.06015e-06H83.2917C85.6178 -0.00224053 87.9215 0.466009 90.0709 1.37796C92.2204 2.28991 94.1734 3.62765 95.8182 5.31463C97.463 7.00162 98.7673 9.00471 99.6565 11.2093C100.546 13.4139 101.002 15.7766 101 18.1624V81.8376C101.002 84.2234 100.546 86.5861 99.6565 88.7907C98.7673 90.9953 97.463 92.9984 95.8182 94.6854C94.1734 96.3723 92.2204 97.7101 90.0709 98.622C87.9215 99.534 85.6178 100.002 83.2917 100H18.7083C16.3822 100.002 14.0785 99.534 11.9291 98.622C9.7796 97.7101 7.82658 96.3723 6.18177 94.6854C4.53696 92.9984 3.23266 90.9953 2.34351 88.7907C1.45436 86.5861 0.997815 84.2234 1.00001 81.8376V18.1624C0.997815 15.7766 1.45436 13.4139 2.34351 11.2093C3.23266 9.00471 4.53696 7.00162 6.18177 5.31463C7.82658 3.62765 9.7796 2.28991 11.9291 1.37796C14.0785 0.466009 16.3822 -0.00224053 18.7083 8.06015e-06Z" fill="#000B1D"/>
<g clip-path="url(#clip1_329_3401)">
<path d="M51.7737 56.5524C55.6803 56.5524 58.8472 53.508 58.8472 49.7526C58.8472 45.9971 55.6803 42.9527 51.7737 42.9527C47.8671 42.9527 44.7002 45.9971 44.7002 49.7526C44.7002 53.508 47.8671 56.5524 51.7737 56.5524Z" fill="#61DAFB"/>
<path fill-rule="evenodd" clip-rule="evenodd" d="M17.9091 45.5099C16.1929 46.9993 15.4719 48.4358 15.4719 49.7529C15.4719 51.07 16.1929 52.5065 17.9091 53.9958C19.6252 55.485 22.2012 56.899 25.5252 58.119C32.1616 60.5549 41.4415 62.0949 51.774 62.0949C62.1064 62.0949 71.3863 60.5549 78.0227 58.119C81.3467 56.899 83.9227 55.485 85.6388 53.9958C87.355 52.5065 88.076 51.07 88.076 49.7529C88.076 48.4358 87.355 46.9993 85.6388 45.5099C83.9227 44.0207 81.3467 42.6067 78.0227 41.3867C71.3863 38.9508 62.1064 37.4109 51.774 37.4109C41.4415 37.4109 32.1616 38.9508 25.5252 41.3867C22.2012 42.6067 19.6252 44.0207 17.9091 45.5099ZM24.3457 38.417C31.4463 35.8107 41.1442 34.2321 51.774 34.2321C62.4037 34.2321 72.1016 35.8107 79.2023 38.417C82.7469 39.7181 85.7293 41.3061 87.8545 43.1503C89.9796 44.9944 91.3828 47.2229 91.3828 49.7529C91.3828 52.2828 89.9796 54.5113 87.8545 56.3554C85.7293 58.1997 82.7469 59.7877 79.2023 61.0887C72.1016 63.695 62.4037 65.2737 51.774 65.2737C41.1442 65.2737 31.4463 63.695 24.3457 61.0887C20.801 59.7877 17.8186 58.1997 15.6934 56.3554C13.5683 54.5113 12.1652 52.2828 12.1652 49.7529C12.1652 47.2229 13.5683 44.9944 15.6934 43.1503C17.8186 41.3061 20.801 39.7181 24.3457 38.417Z" fill="#61DAFB"/>
<path fill-rule="evenodd" clip-rule="evenodd" d="M38.6639 19.4379C36.464 18.7537 34.8095 18.8717 33.6229 19.5303C32.4363 20.1888 31.5028 21.5073 31.0192 23.6808C30.5356 25.8541 30.5498 28.7057 31.1127 32.0829C32.2365 38.8259 35.4891 47.3216 40.6553 55.9235C45.8215 64.5255 51.8488 71.4812 57.3615 75.7883C60.1225 77.9455 62.6844 79.3831 64.884 80.0672C67.0838 80.7513 68.7384 80.6333 69.925 79.9748C71.1115 79.3162 72.0451 77.9977 72.5287 75.8242C73.0123 73.651 72.9981 70.7994 72.4352 67.4221C71.3114 60.6792 68.0588 52.1835 62.8926 43.5815C57.7264 34.9796 51.6991 28.0238 46.1864 23.7168C43.4254 21.5596 40.8635 20.1219 38.6639 19.4379ZM48.272 21.25C54.1703 25.8583 60.4414 33.1426 65.7563 41.9921C71.0712 50.8416 74.4979 59.7046 75.7003 66.9193C76.3005 70.5208 76.3612 73.7977 75.7623 76.4891C75.1635 79.1803 73.8575 81.4627 71.5783 82.7277C69.2992 83.9927 66.59 83.9387 63.8662 83.0916C61.1421 82.2445 58.2203 80.5556 55.2759 78.2551C49.3776 73.6468 43.1065 66.3625 37.7916 57.5129C32.4767 48.6634 29.05 39.8004 27.8476 32.5858C27.2473 28.9843 27.1867 25.7074 27.7856 23.0159C28.3844 20.3247 29.6904 18.0423 31.9695 16.7774C34.2487 15.5124 36.9579 15.5663 39.6817 16.4134C42.4058 17.2606 45.3276 18.9495 48.272 21.25Z" fill="#61DAFB"/>
<path fill-rule="evenodd" clip-rule="evenodd" d="M72.5286 23.681C72.045 21.5075 71.1114 20.189 69.9248 19.5305C68.7383 18.8719 67.0837 18.7539 64.8838 19.4381C62.6842 20.1221 60.1224 21.5598 57.3613 23.717C51.8486 28.024 45.8213 34.9797 40.6551 43.5817C35.4889 52.1837 32.2363 60.6793 31.1125 67.4223C30.5496 70.7996 30.5354 73.6512 31.019 75.8244C31.5026 77.9979 32.4362 79.3164 33.6227 79.975C34.8093 80.6335 36.4639 80.7515 38.6637 80.0674C40.8634 79.3833 43.4252 77.9457 46.1863 75.7885C51.699 71.4814 57.7262 64.5257 62.8924 55.9237C68.0587 47.3218 71.3113 38.8261 72.4351 32.0831C72.9979 28.7059 73.0121 25.8543 72.5286 23.681ZM75.7002 32.586C74.4978 39.8006 71.071 48.6636 65.7561 57.5131C60.4413 66.3626 54.1701 73.6469 48.2718 78.2553C45.3274 80.5557 42.4056 82.2447 39.6816 83.0918C36.9577 83.9389 34.2486 83.9928 31.9694 82.7279C29.6902 81.4629 28.3842 79.1805 27.7854 76.4893C27.1866 73.7979 27.2472 70.521 27.8474 66.9194C29.0498 59.7048 32.4765 50.8418 37.7914 41.9923C43.1063 33.1428 49.3774 25.8585 55.2757 21.2502C58.2201 18.9497 61.1419 17.2608 63.866 16.4136C66.5898 15.5665 69.299 15.5126 71.5782 16.7776C73.8574 18.0425 75.1634 20.3249 75.7622 23.0161C76.361 25.7076 76.3004 28.9845 75.7002 32.586Z" fill="#61DAFB"/>
</g>
</g>
<defs>
<clipPath id="clip0_329_3401">
<rect width="101.745" height="99.0911" fill="white" transform="translate(0.900635 0.454468)"/>
</clipPath>
<clipPath id="clip1_329_3401">
<rect width="79.3614" height="67.8774" fill="white" transform="translate(12.0929 15.8136)"/>
</clipPath>
</defs>
</svg>
