<svg width="101" height="100" viewBox="0 0 101 100" fill="none" xmlns="http://www.w3.org/2000/svg">
<path d="M18.1173 8.06015e-06H82.7006C85.0267 -0.00224053 87.3304 0.466009 89.4799 1.37796C91.6293 2.28991 93.5824 3.62765 95.2272 5.31463C96.872 7.00162 98.1763 9.00471 99.0654 11.2093C99.9546 13.4139 100.411 15.7766 100.409 18.1624V81.8376C100.411 84.2234 99.9546 86.5861 99.0654 88.7907C98.1763 90.9953 96.872 92.9984 95.2272 94.6854C93.5824 96.3723 91.6293 97.7101 89.4799 98.622C87.3304 99.534 85.0267 100.002 82.7006 100H18.1173C15.7912 100.002 13.4875 99.534 11.338 98.622C9.18853 97.7101 7.23551 96.3723 5.5907 94.6854C3.9459 92.9984 2.64159 90.9953 1.75244 88.7907C0.863294 86.5861 0.406751 84.2234 0.408943 81.8376V18.1624C0.406751 15.7766 0.863294 13.4139 1.75244 11.2093C2.64159 9.00471 3.9459 7.00162 5.5907 5.31463C7.23551 3.62765 9.18853 2.28991 11.338 1.37796C13.4875 0.466009 15.7912 -0.00224053 18.1173 8.06015e-06Z" fill="white"/>
<mask id="mask0_329_3362" style="mask-type:luminance" maskUnits="userSpaceOnUse" x="18" y="25" width="67" height="56">
<path d="M18.594 25.173H84.6712V80.7445H18.594V25.173Z" fill="white"/>
</mask>
<g mask="url(#mask0_329_3362)">
<path d="M71.4388 25.173H84.6454L51.6289 80.7445L18.6123 25.173H43.8699L51.6289 38.0592L59.2227 25.173H71.4388Z" fill="#41B883"/>
<path d="M18.6123 25.173L51.6289 80.7445L84.6454 25.173H71.4388L51.6289 58.5159L31.6538 25.173H18.6123Z" fill="#41B883"/>
</g>
<mask id="mask1_329_3362" style="mask-type:luminance" maskUnits="userSpaceOnUse" x="31" y="25" width="41" height="34">
<path d="M31.6287 25.173H71.4632V58.6908H31.6287V25.173Z" fill="white"/>
</mask>
<g mask="url(#mask1_329_3362)">
<path d="M31.6543 25.1731L51.6294 58.6771L71.4393 25.1731H59.2232L51.6294 38.0593L43.8704 25.1731H31.6543Z" fill="#35495E"/>
</g>
</svg>
