<svg width="15" height="16" viewBox="0 0 15 16" fill="none" xmlns="http://www.w3.org/2000/svg">
<path d="M5.08458 9.06954L9.9225 11.8887M9.91542 4.11121L5.08458 6.93038M13.875 3.04163C13.875 4.21523 12.9236 5.16663 11.75 5.16663C10.5764 5.16663 9.625 4.21523 9.625 3.04163C9.625 1.86802 10.5764 0.916626 11.75 0.916626C12.9236 0.916626 13.875 1.86802 13.875 3.04163ZM5.375 7.99996C5.375 9.17356 4.42361 10.125 3.25 10.125C2.07639 10.125 1.125 9.17356 1.125 7.99996C1.125 6.82635 2.07639 5.87496 3.25 5.87496C4.42361 5.87496 5.375 6.82635 5.375 7.99996ZM13.875 12.9583C13.875 14.1319 12.9236 15.0833 11.75 15.0833C10.5764 15.0833 9.625 14.1319 9.625 12.9583C9.625 11.7847 10.5764 10.8333 11.75 10.8333C12.9236 10.8333 13.875 11.7847 13.875 12.9583Z" stroke="#3F3E3F" stroke-width="1.275" stroke-linecap="round" stroke-linejoin="round"/>
</svg>
