<svg width="15" height="12" viewBox="0 0 15 12" fill="none" xmlns="http://www.w3.org/2000/svg">
<path d="M13.1875 9.75L9.03571 6M5.46429 6L1.31252 9.75M1 2.875L6.10307 6.44715C6.51631 6.73641 6.72292 6.88105 6.94767 6.93707C7.14618 6.98655 7.35382 6.98655 7.55233 6.93707C7.77708 6.88105 7.98369 6.73642 8.39692 6.44715L13.5 2.875M4 11H10.5C11.5501 11 12.0751 11 12.4762 10.7956C12.829 10.6159 13.1159 10.329 13.2956 9.97623C13.5 9.57515 13.5 9.0501 13.5 8V4C13.5 2.9499 13.5 2.42485 13.2956 2.02377C13.1159 1.67096 12.829 1.38413 12.4762 1.20436C12.0751 1 11.5501 1 10.5 1H4C2.9499 1 2.42485 1 2.02377 1.20436C1.67096 1.38413 1.38413 1.67096 1.20436 2.02377C1 2.42485 1 2.9499 1 4V8C1 9.0501 1 9.57515 1.20436 9.97623C1.38413 10.329 1.67096 10.6159 2.02377 10.7956C2.42485 11 2.9499 11 4 11Z" stroke="#0077FF" stroke-width="1.1" stroke-linecap="round" stroke-linejoin="round"/>
</svg>
