<svg width="44" height="44" viewBox="0 0 44 44" fill="none" xmlns="http://www.w3.org/2000/svg">
<rect width="44" height="44" rx="8" fill="#FFDD2D"/>
<path d="M9.79492 11.6875H34.2012V23.9646C34.2012 27.11 32.5219 30.0205 29.7985 31.591L21.998 36.0938L14.1976 31.591C11.4742 30.0161 9.79492 27.11 9.79492 23.9646V11.6875Z" fill="white"/>
<path fill-rule="evenodd" clip-rule="evenodd" d="M16.4941 18.1479V21.9677C17.0162 21.376 17.9646 20.9801 19.0522 20.9801H20.2312V25.4176C20.2312 26.5966 19.9093 27.632 19.4351 28.2019H24.5643C24.0901 27.632 23.7682 26.601 23.7682 25.422V20.9801H24.9471C26.0304 20.9801 26.9832 21.3804 27.5052 21.9677V18.1479H16.4941Z" fill="#333333"/>
</svg>
