<svg width="45" height="45" viewBox="0 0 45 45" fill="none" xmlns="http://www.w3.org/2000/svg">
<path d="M0 18.5567C0 9.80899 0 5.43513 2.71757 2.71757C5.43513 0 9.80899 0 18.5567 0H26.4433C35.191 0 39.5649 0 42.2824 2.71757C45 5.43513 45 9.80899 45 18.5567V26.4433C45 35.191 45 39.5649 42.2824 42.2824C39.5649 45 35.191 45 26.4433 45H18.5567C9.80899 45 5.43513 45 2.71757 42.2824C0 39.5649 0 35.191 0 26.4433V18.5567Z" fill="#0077FF"/>
<path fill-rule="evenodd" clip-rule="evenodd" d="M29.647 16.1175H28.3807V15.5716C28.3807 13.7639 27.6409 12.1206 26.4505 10.9296C25.2601 9.73918 23.6168 9 21.8091 9C20.0014 9 18.358 9.73918 17.1671 10.9296C15.9767 12.1206 15.2375 13.7639 15.2375 15.5716V16.1175H13.8447V22.3614L17.6937 18.5669L17.6682 18.5414L17.8586 17.8294L18.0491 17.118L18.7611 16.927L19.4725 16.7365L19.9934 17.2574L20.5144 17.7784L20.3239 18.4898L20.1329 19.2018L19.4215 19.3922L18.7237 19.5793L10.748 27.5822C10.748 27.5822 9.54111 29.501 11.0251 30.7169C12.5098 31.9323 14.0323 30.7039 14.0323 30.7039L24.4195 20.3514C24.4195 20.3514 24.8231 19.7267 24.3412 19.1145C23.8594 18.5028 23.2347 19.1666 23.2347 19.1666L13.1684 29.3729C13.1684 29.3729 12.4995 29.9738 12.0665 29.4619C11.6328 28.95 12.0665 28.4183 12.0665 28.4183L22.2308 18.2353C22.2308 18.2353 23.3753 17.1254 24.8112 17.7931C26.2464 18.4609 26.2243 20.2193 25.8349 20.7425C25.4455 21.2657 15.8967 31.0032 15.8967 31.0032C15.8967 31.0032 14.9064 32.2163 14.4722 33.6521C14.038 35.0874 14.0046 35.978 14.0046 35.978H29.757V29.721L25.9608 33.5172L25.7924 34.1459L25.6014 34.8579L24.89 35.0483L24.1785 35.2393L23.657 34.7184L23.1367 34.1975L23.3271 33.4855L23.5182 32.7741L24.2296 32.583L24.941 32.3926L24.9523 32.4039L32.9161 24.4316C32.9161 24.4316 33.9654 23.0156 32.733 21.5514C31.5007 20.0872 29.8165 21.2464 29.8165 21.2464L18.9793 31.9612C18.9793 31.9612 18.5168 32.6805 19.04 33.0995C19.5637 33.5178 20.1499 33.0501 20.1499 33.0501L30.6782 22.5315C30.6782 22.5315 31.2218 22.2458 31.5846 22.6607C31.9479 23.0757 31.6106 23.5842 31.6106 23.5842L20.753 34.3567C20.753 34.3567 19.3517 35.3516 18.0542 34.1408C16.7567 32.9294 17.552 31.5281 17.6563 31.3813C17.76 31.2339 17.976 30.9658 17.976 30.9658L27.0486 21.862C27.0486 21.862 28.5621 20.2697 29.0773 18.6791C29.5921 17.0885 29.647 16.1175 29.647 16.1175ZM26.8915 16.1175H16.726V15.5716C16.726 14.1743 17.298 12.9034 18.2197 11.9822C19.1409 11.0605 20.4118 10.4886 21.8091 10.4886C23.2058 10.4886 24.4767 11.0605 25.3984 11.9822C26.3196 12.9034 26.8915 14.1743 26.8915 15.5716V16.1175Z" fill="white"/>
</svg>
