<svg width="39" height="39" viewBox="0 0 39 39" fill="none" xmlns="http://www.w3.org/2000/svg">
<rect width="38.9533" height="38.9533" rx="8.11527" fill="#F2F3F5"/>
<path fill-rule="evenodd" clip-rule="evenodd" d="M27.2339 11.4787C27.4949 11.3688 27.7807 11.3309 28.0614 11.369C28.3421 11.407 28.6075 11.5196 28.8299 11.695C29.0524 11.8704 29.2237 12.1022 29.3262 12.3663C29.4286 12.6304 29.4584 12.9171 29.4124 13.1966L27.0162 27.7311C26.7838 29.1331 25.2455 29.9371 23.9597 29.2388C22.8842 28.6545 21.2867 27.7543 19.8499 26.8151C19.1314 26.345 16.9307 24.8394 17.2012 23.7681C17.4336 22.8521 21.1314 19.41 23.2445 17.3635C24.0738 16.5595 23.6956 16.0957 22.7162 16.8353C20.2841 18.6715 16.3792 21.4639 15.0882 22.2499C13.9492 22.943 13.3555 23.0613 12.6455 22.943C11.3502 22.7274 10.1489 22.3936 9.16849 21.9868C7.84362 21.4374 7.90807 19.616 9.16744 19.0856L27.2339 11.4787Z" fill="#24A1DE"/>
</svg>
