<svg width="40" height="39" viewBox="0 0 40 39" fill="none" xmlns="http://www.w3.org/2000/svg">
<rect x="0.697754" width="38.9533" height="38.9533" rx="8.11527" fill="#F2F3F5"/>
<path d="M11.5373 11.2992C10.2061 12.6431 10.2061 14.7921 10.2061 19.0963V19.857C10.2061 24.1549 10.2061 26.3039 11.5373 27.6541C12.8812 28.9853 15.0301 28.9853 19.3344 28.9853H20.095C24.393 28.9853 26.5419 28.9853 27.8921 27.6541C29.2233 26.3102 29.2233 24.1613 29.2233 19.857V19.0963C29.2233 14.7984 29.2233 12.6495 27.8921 11.2992C26.5482 9.96802 24.3993 9.96802 20.095 9.96802H19.3344C15.0364 9.96802 12.8875 9.96802 11.5373 11.2992ZM13.4136 15.7556H15.5943C15.664 19.3816 17.2615 20.9156 18.5293 21.2326V15.7556H20.5768V18.8808C21.8256 18.7477 23.1442 17.3214 23.5879 15.7493H25.6291C25.4625 16.563 25.13 17.3337 24.6523 18.0132C24.1746 18.6927 23.5619 19.2664 22.8526 19.6985C23.6443 20.0925 24.3436 20.6499 24.9041 21.3339C25.4647 22.0179 25.8738 22.813 26.1045 23.6668H23.8541C23.3724 22.1644 22.1679 20.998 20.5768 20.8396V23.6668H20.3233C15.9873 23.6668 13.5151 20.7001 13.4136 15.7556Z" fill="#0077FF"/>
</svg>
