<svg width="40" height="39" viewBox="0 0 40 39" fill="none" xmlns="http://www.w3.org/2000/svg">
<rect x="0.348877" width="38.9533" height="38.9533" rx="8.11527" fill="#F2F3F5"/>
<path d="M26.8145 11.986C25.8458 11.0078 24.692 10.2322 23.4205 9.70433C22.149 9.17649 20.7851 8.90699 19.4084 8.91156C13.6398 8.91156 8.93828 13.6131 8.93828 19.3816C8.93828 21.2305 9.42428 23.0266 10.3329 24.6114L8.85376 30.0419L14.4005 28.5839C15.9324 29.4185 17.6545 29.8623 19.4084 29.8623C25.1769 29.8623 29.8784 25.1608 29.8784 19.3922C29.8784 16.5924 28.7902 13.9617 26.8145 11.986ZM19.4084 28.0873C17.8447 28.0873 16.3128 27.6647 14.971 26.8723L14.654 26.6822L11.3577 27.5485L12.2346 24.3367L12.0233 24.0092C11.1544 22.622 10.6931 21.0185 10.6921 19.3816C10.6921 14.585 14.6012 10.6759 19.3978 10.6759C21.7221 10.6759 23.9091 11.5845 25.5467 13.2327C26.3577 14.0397 27.0004 14.9998 27.4375 16.0571C27.8746 17.1145 28.0974 18.2481 28.0929 19.3922C28.114 24.1888 24.2049 28.0873 19.4084 28.0873ZM24.1838 21.5792C23.9197 21.4524 22.6307 20.8185 22.3983 20.7234C22.1553 20.6389 21.9863 20.5966 21.8066 20.8502C21.627 21.1143 21.1305 21.706 20.9826 21.875C20.8347 22.0546 20.6762 22.0757 20.412 21.9384C20.1479 21.8116 19.3027 21.5264 18.3096 20.6389C17.5278 19.9416 17.0101 19.0858 16.8516 18.8217C16.7037 18.5575 16.8305 18.4202 16.9678 18.2829C17.084 18.1666 17.2319 17.9765 17.3587 17.8286C17.4855 17.6806 17.5383 17.5644 17.6228 17.3954C17.7074 17.2158 17.6651 17.0679 17.6017 16.9411C17.5383 16.8143 17.0101 15.5253 16.7988 14.9971C16.5875 14.49 16.3656 14.5534 16.2071 14.5428H15.7C15.5204 14.5428 15.2457 14.6062 15.0027 14.8703C14.7702 15.1344 14.0941 15.7683 14.0941 17.0573C14.0941 18.3462 15.0344 19.5929 15.1612 19.762C15.2879 19.9416 17.0101 22.5829 19.6302 23.7133C20.2536 23.988 20.7396 24.1465 21.1199 24.2627C21.7433 24.4635 22.3138 24.4318 22.7681 24.3684C23.2752 24.2944 24.3212 23.7345 24.5325 23.1217C24.7543 22.5089 24.7543 21.9912 24.6804 21.875C24.6064 21.7588 24.4479 21.706 24.1838 21.5792Z" fill="#54D881"/>
</svg>
