<svg width="39" height="39" viewBox="0 0 39 39" fill="none" xmlns="http://www.w3.org/2000/svg">
<rect x="0.0466309" width="38.9533" height="38.9533" rx="8.11527" fill="#F2F3F5"/>
<path fill-rule="evenodd" clip-rule="evenodd" d="M19.0637 11.0245C19.967 11.0245 20.8936 11.0478 21.7916 11.0858L22.8524 11.1365L23.8677 11.1967L24.8185 11.2612L25.687 11.3288C26.6296 11.4005 27.5167 11.8026 28.1919 12.4641C28.8672 13.1257 29.2874 14.0043 29.3785 14.9453L29.4207 15.3943L29.5 16.3557C29.5739 17.352 29.6289 18.4381 29.6289 19.4767C29.6289 20.5152 29.5739 21.6013 29.5 22.5976L29.4207 23.559L29.3785 24.0081C29.2874 24.9492 28.867 25.8279 28.1915 26.4895C27.5161 27.1511 26.6287 27.553 25.6859 27.6245L24.8196 27.6911L23.8687 27.7566L22.8524 27.8168L21.7916 27.8675C20.8828 27.9069 19.9733 27.9273 19.0637 27.9288C18.1541 27.9273 17.2446 27.9069 16.3358 27.8675L15.275 27.8168L14.2597 27.7566L13.3089 27.6911L12.4404 27.6245C11.4978 27.5528 10.6107 27.1507 9.93544 26.4892C9.26017 25.8276 8.83999 24.949 8.74893 24.0081L8.70667 23.559L8.62743 22.5976C8.54696 21.5592 8.50397 20.5182 8.49854 19.4767C8.49854 18.4381 8.55347 17.352 8.62743 16.3557L8.70667 15.3943L8.74893 14.9453C8.83996 14.0045 9.25998 13.126 9.93504 12.4645C10.6101 11.8029 11.4969 11.4008 12.4393 11.3288L13.3067 11.2612L14.2576 11.1967L15.274 11.1365L16.3347 11.0858C17.2439 11.0464 18.1537 11.026 19.0637 11.0245ZM16.9507 16.9146V22.0387C16.9507 22.5268 17.4789 22.8311 17.9015 22.5881L22.3389 20.0261C22.4355 19.9705 22.5157 19.8904 22.5714 19.794C22.6272 19.6975 22.6566 19.5881 22.6566 19.4767C22.6566 19.3653 22.6272 19.2558 22.5714 19.1594C22.5157 19.0629 22.4355 18.9829 22.3389 18.9273L17.9015 16.3663C17.8051 16.3106 17.6958 16.2813 17.5845 16.2814C17.4732 16.2814 17.3638 16.3107 17.2674 16.3664C17.1711 16.4221 17.091 16.5021 17.0354 16.5986C16.9798 16.695 16.9506 16.8044 16.9507 16.9157V16.9146Z" fill="#FC0017"/>
</svg>
