<svg width="19" height="20" viewBox="0 0 19 20" fill="none" xmlns="http://www.w3.org/2000/svg">
<path d="M4.55938 6.67627H9.24467M4.55938 9.95597H12.0558M4.55938 15.5783V17.7668C4.55938 18.2661 4.55938 18.5158 4.66174 18.644C4.75075 18.7555 4.88573 18.8204 5.02842 18.8202C5.19248 18.8201 5.38743 18.6641 5.77733 18.3522L8.01264 16.5639C8.46927 16.1986 8.69758 16.016 8.95182 15.8861C9.17739 15.7709 9.41749 15.6866 9.66561 15.6357C9.94528 15.5783 10.2377 15.5783 10.8224 15.5783H13.1803C14.7547 15.5783 15.5419 15.5783 16.1433 15.2719C16.6722 15.0024 17.1023 14.5723 17.3718 14.0434C17.6782 13.442 17.6782 12.6548 17.6782 11.0804V6.02033C17.6782 4.44593 17.6782 3.65873 17.3718 3.05739C17.1023 2.52843 16.6722 2.09838 16.1433 1.82886C15.5419 1.52246 14.7547 1.52246 13.1803 1.52246H5.30903C3.73463 1.52246 2.94743 1.52246 2.34608 1.82886C1.81713 2.09838 1.38707 2.52843 1.11756 3.05739C0.811157 3.65873 0.811157 4.44593 0.811157 6.02033V11.8301C0.811157 12.7015 0.811157 13.1372 0.906946 13.4947C1.16689 14.4648 1.92463 15.2226 2.89474 15.4825C3.25223 15.5783 3.68795 15.5783 4.55938 15.5783Z" stroke="white" stroke-width="1.07949" stroke-linecap="round" stroke-linejoin="round"/>
</svg>
