<svg width="19" height="20" viewBox="0 0 19 20" fill="none" xmlns="http://www.w3.org/2000/svg">
<path d="M10.4573 1.30373C10.115 1.03742 9.94375 0.904269 9.75471 0.853086C9.58791 0.807923 9.41211 0.807923 9.24531 0.853086C9.05627 0.904269 8.88507 1.03742 8.54267 1.30373L1.93275 6.44478C1.4909 6.78844 1.26998 6.96027 1.11082 7.17546C0.969838 7.36607 0.864813 7.58081 0.800906 7.80913C0.72876 8.06687 0.72876 8.34675 0.72876 8.90651V15.9576C0.72876 17.0492 0.72876 17.595 0.941206 18.012C1.12808 18.3787 1.42626 18.6769 1.79302 18.8638C2.20997 19.0762 2.75579 19.0762 3.84743 19.0762H5.79659C6.0695 19.0762 6.20596 19.0762 6.31019 19.0231C6.40188 18.9764 6.47643 18.9018 6.52315 18.8102C6.57626 18.7059 6.57626 18.5695 6.57626 18.2966V11.8643C6.57626 11.3185 6.57626 11.0456 6.68248 10.8371C6.77592 10.6537 6.92501 10.5046 7.10839 10.4112C7.31687 10.305 7.58978 10.305 8.13559 10.305H10.8644C11.4102 10.305 11.6832 10.305 11.8916 10.4112C12.075 10.5046 12.2241 10.6537 12.3175 10.8371C12.4238 11.0456 12.4238 11.3185 12.4238 11.8643V18.2966C12.4238 18.5695 12.4238 18.7059 12.4769 18.8102C12.5236 18.9018 12.5981 18.9764 12.6898 19.0231C12.7941 19.0762 12.9305 19.0762 13.2034 19.0762H15.1526C16.2442 19.0762 16.79 19.0762 17.207 18.8638C17.5738 18.6769 17.8719 18.3787 18.0588 18.012C18.2713 17.595 18.2713 17.0492 18.2713 15.9576V8.90651C18.2713 8.34675 18.2713 8.06687 18.1991 7.80913C18.1352 7.58081 18.0302 7.36607 17.8892 7.17546C17.73 6.96027 17.5091 6.78844 17.0673 6.44478L10.4573 1.30373Z" stroke="white" stroke-width="1.08" stroke-linecap="round" stroke-linejoin="round"/>
</svg>
