<svg width="17" height="19" viewBox="0 0 17 19" fill="none" xmlns="http://www.w3.org/2000/svg">
<path d="M15.6759 18.3897C15.6759 17.082 15.6759 16.4281 15.5145 15.8961C15.1511 14.6981 14.2137 13.7607 13.0157 13.3973C12.4837 13.2359 11.8298 13.2359 10.5221 13.2359H5.8368C4.52907 13.2359 3.87521 13.2359 3.34315 13.3973C2.14522 13.7607 1.20777 14.6981 0.844382 15.8961C0.682983 16.4281 0.682983 17.082 0.682983 18.3897M12.3962 5.73946C12.3962 8.06831 10.5083 9.95622 8.17944 9.95622C5.85059 9.95622 3.96268 8.06831 3.96268 5.73946C3.96268 3.41061 5.85059 1.52271 8.17944 1.52271C10.5083 1.52271 12.3962 3.41061 12.3962 5.73946Z" stroke="white" stroke-width="1.07949" stroke-linecap="round" stroke-linejoin="round"/>
</svg>
