<svg width="17" height="16" viewBox="0 0 17 16" fill="none" xmlns="http://www.w3.org/2000/svg">
<path d="M7.49338 1.4088C7.79621 0.716598 8.77827 0.716598 9.08025 1.4088L10.5962 4.88884C10.659 5.0328 10.7599 5.15695 10.8879 5.24795C11.0159 5.33895 11.1663 5.39337 11.323 5.40539L15.1846 5.7013C15.9633 5.76101 16.2705 6.73961 15.6657 7.23366L12.7844 9.58974C12.6575 9.69358 12.5627 9.83135 12.5111 9.98699C12.4594 10.1426 12.4531 10.3097 12.4928 10.4688L13.384 14.0328C13.5692 14.7752 12.7697 15.3757 12.1086 14.9898L8.7229 13.0161C8.59054 12.9389 8.44005 12.8982 8.28681 12.8982C8.13357 12.8982 7.98308 12.9389 7.85073 13.0161L4.465 14.9898C3.80395 15.3757 3.00446 14.7752 3.18962 14.0328L4.08083 10.4688C4.12015 10.3097 4.11346 10.1427 4.06153 9.98718C4.0096 9.8317 3.91457 9.69417 3.78751 9.59061L0.906225 7.23453C0.302281 6.74047 0.61031 5.76187 1.38817 5.70217L5.24892 5.40626C5.40554 5.39424 5.55594 5.33981 5.68399 5.24881C5.81203 5.15781 5.91288 5.03367 5.97573 4.8897L7.49338 1.4088Z" fill="white" stroke="#C9C9C9" stroke-width="0.86525"/>
</svg>
