<svg width="17" height="16" viewBox="0 0 17 16" fill="none" xmlns="http://www.w3.org/2000/svg">
<path d="M4.97151 13.3038L8.57317 11.1314L12.1748 13.3324L11.2315 9.21619L14.4044 6.47207L10.2311 6.10047L8.57317 2.21296L6.91526 6.07188L2.74191 6.44348L5.9148 9.21619L4.97151 13.3038ZM8.57317 12.4771L4.42268 14.9834C4.30072 15.0436 4.18753 15.068 4.0831 15.0566C3.97943 15.0444 3.87843 15.0086 3.7801 14.9491C3.68101 14.8881 3.60631 14.802 3.556 14.6907C3.50569 14.5794 3.50112 14.4578 3.54228 14.326L4.64679 9.62667L0.993676 6.45949C0.890772 6.37564 0.822931 6.27541 0.790154 6.15878C0.757377 6.04216 0.764618 5.93048 0.811878 5.82377C0.859138 5.71705 0.922024 5.62939 1.00054 5.56079C1.07981 5.49447 1.18653 5.4495 1.32068 5.42587L6.14119 5.00511L8.02091 0.555056C8.07275 0.429283 8.14745 0.338575 8.24502 0.28293C8.34259 0.227285 8.45197 0.199463 8.57317 0.199463C8.69437 0.199463 8.80413 0.227285 8.90246 0.28293C9.00079 0.338575 9.07511 0.429283 9.12542 0.555056L11.0051 5.00511L15.8245 5.42587C15.9594 5.44874 16.0665 5.49409 16.1458 5.56193C16.2251 5.62901 16.2883 5.71629 16.3356 5.82377C16.3821 5.93048 16.389 6.04216 16.3562 6.15878C16.3234 6.27541 16.2556 6.37564 16.1527 6.45949L12.4995 9.62667L13.6041 14.326C13.6467 14.4563 13.6426 14.5775 13.5915 14.6896C13.5404 14.8016 13.4653 14.8878 13.3662 14.948C13.2687 15.009 13.1677 15.0452 13.0632 15.0566C12.9596 15.068 12.8468 15.0436 12.7248 14.9834L8.57317 12.4771Z" fill="#FFC669"/>
</svg>
