<svg width="17" height="16" viewBox="0 0 17 16" fill="none" xmlns="http://www.w3.org/2000/svg">
<path d="M7.90549 1.4088C8.20832 0.716598 9.19038 0.716598 9.49236 1.4088L11.0083 4.88884C11.0711 5.0328 11.172 5.15695 11.3 5.24795C11.4281 5.33895 11.5785 5.39337 11.7351 5.40539L15.5967 5.7013C16.3754 5.76101 16.6826 6.73961 16.0778 7.23366L13.1965 9.58974C13.0696 9.69358 12.9748 9.83135 12.9232 9.98699C12.8715 10.1426 12.8652 10.3097 12.9049 10.4688L13.7961 14.0328C13.9813 14.7752 13.1818 15.3757 12.5207 14.9898L9.13501 13.0161C9.00265 12.9389 8.85216 12.8982 8.69892 12.8982C8.54568 12.8982 8.39519 12.9389 8.26283 13.0161L4.87711 14.9898C4.21606 15.3757 3.41657 14.7752 3.60173 14.0328L4.49294 10.4688C4.53226 10.3097 4.52556 10.1427 4.47364 9.98718C4.42171 9.8317 4.32668 9.69417 4.19962 9.59061L1.31833 7.23453C0.71439 6.74047 1.02242 5.76187 1.80028 5.70217L5.66103 5.40626C5.81765 5.39424 5.96805 5.33981 6.0961 5.24881C6.22414 5.15781 6.32499 5.03367 6.38784 4.8897L7.90549 1.4088Z" fill="#FFAF00" stroke="#FFAF00" stroke-width="0.86525"/>
</svg>
