<svg width="17" height="16" viewBox="0 0 17 16" fill="none" xmlns="http://www.w3.org/2000/svg">
<path d="M8.42668 12.4772L4.2762 14.9835C4.15424 15.0438 4.04104 15.0681 3.93662 15.0567C3.83295 15.0445 3.73195 15.0087 3.63362 14.9492C3.53453 14.8883 3.45982 14.8021 3.40952 14.6908C3.35921 14.5795 3.35463 14.458 3.39579 14.3261L4.5003 9.62679L0.847192 6.45961C0.744287 6.37576 0.676447 6.27553 0.64367 6.1589C0.610893 6.04228 0.618134 5.93061 0.665394 5.82389C0.712654 5.71718 0.77554 5.62952 0.854052 5.56091C0.933327 5.4946 1.04004 5.44962 1.1742 5.42599L5.99471 5.00523L7.87443 0.555178C7.92626 0.429406 8.00096 0.338697 8.09853 0.283052C8.1961 0.227407 8.30549 0.199585 8.42668 0.199585C8.54788 0.199585 8.65765 0.227407 8.75598 0.283052C8.85431 0.338697 8.92863 0.429406 8.97894 0.555178L10.8587 5.00523L15.678 5.42599C15.8129 5.44886 15.92 5.49422 15.9993 5.56206C16.0786 5.62913 16.1419 5.71641 16.1891 5.82389C16.2356 5.93061 16.2425 6.04228 16.2097 6.1589C16.1769 6.27553 16.1091 6.37576 16.0062 6.45961L12.3531 9.62679L13.4576 14.3261C13.5003 14.4564 13.4961 14.5776 13.445 14.6897C13.3939 14.8017 13.3188 14.8879 13.2197 14.9481C13.1222 15.0091 13.0212 15.0453 12.9168 15.0567C12.8131 15.0681 12.7003 15.0438 12.5783 14.9835L8.42668 12.4772Z" fill="#FFC669"/>
</svg>
